<svg width="158" height="25" viewBox="0 0 158 25" fill="none" xmlns="http://www.w3.org/2000/svg">
<path d="M0.24 24V0.959999H3.264L11.616 18.288L19.92 0.959999H22.976V23.984H19.808V8.224L12.368 24H10.848L3.392 8.224V24H0.24ZM27.7788 3.888V0.639999H31.1228V3.888H27.7788ZM27.7788 24V6.72H31.1228V24H27.7788ZM48.0555 24V15.504C48.0555 14.832 47.9968 14.144 47.8795 13.44C47.7728 12.7253 47.5595 12.064 47.2395 11.456C46.9302 10.848 46.4875 10.3573 45.9115 9.984C45.3462 9.61067 44.6048 9.424 43.6875 9.424C43.0902 9.424 42.5248 9.52533 41.9915 9.728C41.4582 9.92 40.9888 10.2347 40.5835 10.672C40.1888 11.1093 39.8742 11.6853 39.6395 12.4C39.4155 13.1147 39.3035 13.984 39.3035 15.008L37.2235 14.224C37.2235 12.656 37.5168 11.2747 38.1035 10.08C38.6902 8.87467 39.5328 7.936 40.6315 7.264C41.7302 6.592 43.0582 6.256 44.6155 6.256C45.8102 6.256 46.8128 6.448 47.6235 6.832C48.4342 7.216 49.0902 7.72267 49.5915 8.352C50.1035 8.97067 50.4928 9.648 50.7595 10.384C51.0262 11.12 51.2075 11.84 51.3035 12.544C51.3995 13.248 51.4475 13.8667 51.4475 14.4V24H48.0555ZM35.9115 24V6.72H38.9035V11.712H39.3035V24H35.9115ZM62.2603 24.48C60.6496 24.48 59.2576 24.08 58.0843 23.28C56.9216 22.48 56.0203 21.392 55.3803 20.016C54.7509 18.6293 54.4363 17.072 54.4363 15.344C54.4363 13.6053 54.7563 12.0533 55.3963 10.688C56.0363 9.312 56.9429 8.22933 58.1163 7.44C59.3003 6.64 60.7029 6.24 62.3243 6.24C63.9563 6.24 65.3269 6.64 66.4363 7.44C67.5563 8.22933 68.3989 9.312 68.9643 10.688C69.5403 12.064 69.8283 13.616 69.8283 15.344C69.8283 17.072 69.5403 18.624 68.9643 20C68.3883 21.376 67.5403 22.4693 66.4203 23.28C65.3003 24.08 63.9136 24.48 62.2603 24.48ZM62.7243 21.456C63.8229 21.456 64.7189 21.1947 65.4123 20.672C66.1056 20.1493 66.6123 19.4293 66.9323 18.512C67.2523 17.5947 67.4123 16.5387 67.4123 15.344C67.4123 14.1493 67.2469 13.0933 66.9163 12.176C66.5963 11.2587 66.0949 10.544 65.4123 10.032C64.7403 9.52 63.8816 9.264 62.8363 9.264C61.7269 9.264 60.8149 9.536 60.1003 10.08C59.3856 10.624 58.8523 11.3547 58.5003 12.272C58.1589 13.1893 57.9883 14.2133 57.9883 15.344C57.9883 16.4853 58.1589 17.52 58.5003 18.448C58.8523 19.3653 59.3749 20.096 60.0683 20.64C60.7723 21.184 61.6576 21.456 62.7243 21.456ZM67.4123 24V11.568H67.0283V0.959999H70.3883V24H67.4123ZM76.449 24V6.112C76.449 5.67467 76.465 5.21067 76.497 4.72C76.529 4.21867 76.6197 3.728 76.769 3.248C76.929 2.75733 77.1903 2.30933 77.553 1.904C77.9903 1.424 78.4703 1.08267 78.993 0.879999C79.5157 0.677332 80.033 0.559998 80.545 0.527998C81.0677 0.495999 81.5477 0.48 81.985 0.48H84.161V3.232H82.145C81.3557 3.232 80.7637 3.42933 80.369 3.824C79.985 4.208 79.793 4.75733 79.793 5.472V24H76.449ZM73.585 9.408V6.72H84.161V9.408H73.585ZM93.2208 24.464C92.0261 24.464 91.0234 24.272 90.2128 23.888C89.4021 23.504 88.7408 23.0027 88.2288 22.384C87.7274 21.7547 87.3434 21.072 87.0768 20.336C86.8101 19.6 86.6288 18.88 86.5328 18.176C86.4368 17.472 86.3888 16.8533 86.3888 16.32V6.72H89.7808V15.216C89.7808 15.888 89.8341 16.5813 89.9408 17.296C90.0581 18 90.2714 18.656 90.5808 19.264C90.9008 19.872 91.3434 20.3627 91.9088 20.736C92.4848 21.1093 93.2314 21.296 94.1488 21.296C94.7461 21.296 95.3114 21.2 95.8448 21.008C96.3781 20.8053 96.8421 20.4853 97.2368 20.048C97.6421 19.6107 97.9568 19.0347 98.1808 18.32C98.4154 17.6053 98.5328 16.736 98.5328 15.712L100.613 16.496C100.613 18.064 100.319 19.4507 99.7328 20.656C99.1461 21.8507 98.3034 22.784 97.2048 23.456C96.1061 24.128 94.7781 24.464 93.2208 24.464ZM98.9328 24V19.008H98.5328V6.72H101.909V24H98.9328ZM106.716 24V0.48H110.06V24H106.716Z" fill="#65B583"/>
<path d="M114.865 24V0.959999H117.889L126.241 18.288L134.545 0.959999H137.601V23.984H134.433V8.224L126.993 24H125.473L118.017 8.224V24H114.865ZM149.748 24.48C148.03 24.48 146.521 24.1067 145.22 23.36C143.929 22.6027 142.921 21.552 142.196 20.208C141.481 18.8533 141.124 17.2853 141.124 15.504C141.124 13.616 141.476 11.9787 142.18 10.592C142.894 9.20533 143.886 8.13333 145.156 7.376C146.425 6.61867 147.902 6.24 149.588 6.24C151.348 6.24 152.846 6.65067 154.084 7.472C155.321 8.28267 156.244 9.44 156.852 10.944C157.47 12.448 157.716 14.2347 157.588 16.304H154.244V15.088C154.222 13.0827 153.838 11.6 153.092 10.64C152.356 9.68 151.23 9.2 149.716 9.2C148.041 9.2 146.782 9.728 145.94 10.784C145.097 11.84 144.676 13.3653 144.676 15.36C144.676 17.2587 145.097 18.7307 145.94 19.776C146.782 20.8107 147.998 21.328 149.588 21.328C150.633 21.328 151.534 21.0933 152.292 20.624C153.06 20.144 153.657 19.4613 154.084 18.576L157.364 19.616C156.692 21.1627 155.673 22.3627 154.308 23.216C152.942 24.0587 151.422 24.48 149.748 24.48ZM143.588 16.304V13.696H155.924V16.304H143.588Z" fill="#656565"/>
</svg>
