<svg width="72" height="72" viewBox="0 0 72 72" fill="none" xmlns="http://www.w3.org/2000/svg">
<rect width="72" height="72" fill="#65B583"/>
<path d="M20 55.6349C21.2052 56 22.833 56 25.6 56H46.4C49.167 56 50.7948 56 52 55.6349M20 55.6349C19.7416 55.5566 19.5027 55.4615 19.2761 55.346C18.1471 54.7708 17.2292 53.8529 16.654 52.7239C16 51.4405 16 49.7603 16 46.4V25.6C16 22.2397 16 20.5595 16.654 19.2761C17.2292 18.1471 18.1471 17.2292 19.2761 16.654C20.5595 16 22.2397 16 25.6 16H46.4C49.7603 16 51.4405 16 52.7239 16.654C53.8529 17.2292 54.7708 18.1471 55.346 19.2761C56 20.5595 56 22.2397 56 25.6V46.4C56 49.7603 56 51.4405 55.346 52.7239C54.7708 53.8529 53.8529 54.7708 52.7239 55.346C52.4973 55.4615 52.2584 55.5566 52 55.6349M20 55.6349C20.0007 54.0162 20.0104 53.1597 20.1537 52.4393C20.785 49.2658 23.2658 46.785 26.4393 46.1537C27.2121 46 28.1414 46 30 46H42C43.8586 46 44.7879 46 45.5607 46.1537C48.7342 46.785 51.215 49.2658 51.8463 52.4393C51.9896 53.1597 51.9993 54.0162 52 55.6349M44 31C44 35.4183 40.4183 39 36 39C31.5817 39 28 35.4183 28 31C28 26.5817 31.5817 23 36 23C40.4183 23 44 26.5817 44 31Z" stroke="#FCF8ED" stroke-width="2" stroke-linecap="round" stroke-linejoin="round"/>
</svg>
